<svg xmlns="http://www.w3.org/2000/svg" viewBox="0 0 1920 1080" width="1920" height="1080" xmlns:c2pa="http://c2pa.org/manifest"><metadata><c2pa:manifest>AAAWgmp1bWIAAAAeanVtZGMycGEAEQAQgAAAqgA4m3EDYzJwYQAAABZcanVtYgAAAEdqdW1kYzJtYQARABCAAACqADibcQN1cm46YzJwYTpiNWEyZTRlZS02ZWZmLTQ2ZGMtYTBmZS1iYmFiM2UxNTM3OTYAAAADl2p1bWIAAAApanVtZGMyYXMAEQAQgAAAqgA4m3EDYzJwYS5hc3NlcnRpb25zAAAAALxqdW1iAAAARGp1bWRjYm9yABEAEIAAAKoAOJtxE2MycGEuaW5ncmVkaWVudC52MwAAAAAYYzJzaCDtG+T4rXi5Zvn+kABvQZAAAABwY2JvcqNpZGM6Zm9ybWF0bWltYWdlL3N2Zyt4bWxqaW5zdGFuY2VJRHgseG1wOmlpZDpjZDRkNWVlZC1jY2EyLTQzZjItOGI1Yi1jMTFkMGMyN2E4MzFscmVsYXRpb25zaGlwaHBhcmVudE9mAAAB4mp1bWIAAABBanVtZGNib3IAEQAQgAAAqgA4m3ETYzJwYS5hY3Rpb25zLnYyAAAAABhjMnNozBhNdgZJ+kepse4kuKMG+AAAAZljYm9yomdhY3Rpb25zgqJmYWN0aW9ua2MycGEub3BlbmVkanBhcmFtZXRlcnOha2luZ3JlZGllbnRzgaJjdXJseC1zZWxmI2p1bWJmPWMycGEuYXNzZXJ0aW9ucy9jMnBhLmluZ3JlZGllbnQudjNkaGFzaFggiIoohyyh9gLnz+mjZTJ5ky4W+n4J+juteCS7R2fxxuykZmFjdGlvbngdY29tLmFudGhyb3BpYy5jbGF1ZGUucHJvdmlkZWRqcGFyYW1ldGVyc6F4H2NvbS5hbnRocm9waWMub3JpZ2luLWNvbmZpZGVuY2VndW5rbm93bmtkZXNjcmlwdGlvbnhmQ2xhdWRlIHByb3ZpZGVkIHRoaXMgZmlsZSBhdCB0aGUgcmVxdWVzdCBvZiBhIHVzZXIgYW5kIG1heSBoYXZlIGNyZWF0ZWQgb3IgbW9kaWZpZWQgdGhlIGZpbGUgY29udGVudHMubXNvZnR3YXJlQWdlbnShZG5hbWVmQ2xhdWRlcmFsbEFjdGlvbnNJbmNsdWRlZPUAAADIanVtYgAAAEBqdW1kY2JvcgARABCAAACqADibcRNjMnBhLmhhc2guZGF0YQAAAAAYYzJzaIuS8oEtv66zavbDgfWtJTwAAACAY2JvcqVjYWxnZnNoYTI1NmNwYWRNAAAAAAAAAAAAAAAAAGRoYXNoWCCu181Fhj3swagKgBSzW+6Occ7CQu4alxVhDh5P5VVyMWRuYW1lbmp1bWJmIG1hbmlmZXN0amV4Y2x1c2lvbnOBomVzdGFydBiaZmxlbmd0aBkeBAAAAj5qdW1iAAAAJ2p1bWRjMmNsABEAEIAAAKoAOJtxA2MycGEuY2xhaW0udjIAAAACD2Nib3KlY2FsZ2ZzaGEyNTZpc2lnbmF0dXJleE1zZWxmI2p1bWJmPS9jMnBhL3VybjpjMnBhOmI1YTJlNGVlLTZlZmYtNDZkYy1hMGZlLWJiYWIzZTE1Mzc5Ni9jMnBhLnNpZ25hdHVyZWppbnN0YW5jZUlEeCx4bXA6aWlkOmMwODE0NDU2LWVmMGYtNDJlMC1hY2Y2LWQ4ZGMwYTMyNGQ3ZHJjcmVhdGVkX2Fzc2VydGlvbnODomN1cmx4LXNlbGYjanVtYmY9YzJwYS5hc3NlcnRpb25zL2MycGEuaW5ncmVkaWVudC52M2RoYXNoWCCIiiiHLKH2AufP6aNlMnmTLhb6fgn6O614JLtHZ/HG7KJjdXJseCpzZWxmI2p1bWJmPWMycGEuYXNzZXJ0aW9ucy9jMnBhLmFjdGlvbnMudjJkaGFzaFggNttiaK14gMecF2YeIwC7MBwMR0vIcVV65jzk4NvMc/iiY3VybHgpc2VsZiNqdW1iZj1jMnBhLmFzc2VydGlvbnMvYzJwYS5oYXNoLmRhdGFkaGFzaFgg01mLGtvQQ6yN2ArNAihS4bRN3jBQAj2gj+GviZWZ4qp0Y2xhaW1fZ2VuZXJhdG9yX2luZm+jZG5hbWVvQW50aHJvcGljIEZpbGVzZ3ZlcnNpb25lMS4wLjBrc3BlY1ZlcnNpb25lMi40LjAAABA4anVtYgAAAChqdW1kYzJjcwARABCAAACqADibcQNjMnBhLnNpZ25hdHVyZQAAABAIY2JvctKEWQISogEmGCFZAgowggIGMIIBjaADAgECAhRA5aAK7sI50L64g/oGQgU9Z1UTADAKBggqhkjOPQQDAzBJMRcwFQYDVQQKEw5BbnRocm9waWMsIFBCQzEuMCwGA1UEAxMlQW50aHJvcGljIENvbnRlbnQgQ3JlZGVudGlhbHMgUm9vdCBDQTAeFw0yNjA4MDcxODQzNTZaFw0yODA4MDYxOTQzNTZaMEQxFzAVBgNVBAoTDkFudGhyb3BpYywgUEJDMSkwJwYDVQQDEyBBbnRocm9waWMgQ2xhdWRlIENvbnRlbnQgU2lnbmluZzBZMBMGByqGSM49AgEGCCqGSM49AwEHA0IABJh6CmvLUBgFFNU0vUKlOVtE6djd17L5SuwX0LemFisBM3dkd/3cyjxFA3Qo5S46fX0/ihY0VZ7mfb9KF703t5OjWDBWMA4GA1UdDwEB/wQEAwIHgDAVBgNVHSUEDjAMBgorBgEEAYPoXgIBMAwGA1UdEwEB/wQCMAAwHwYDVR0jBBgwFoAUzlHiBIFOZFsj+OPEz5o+nMHXXMIwCgYIKoZIzj0EAwMDZwAwZAIwMXMdFJ4BetLLVY7ORuE9noqbbAZOZn/aArXyTwFAZfKrPzxF2vPoJNf1+UCdg1XGAjBwX1zd9WGqYkqmL5SFqw1QySjr1zJfpJM9+1rdDwSPLMOPOjKuiXjoU/pUUeG9RwmhY3BhZFkNngAAAAAAAAAAAAAAAAAAAAAAAAAAAAAAAAAAAAAAAAAAAAAAAAAAAAAAAAAAAAAAAAAAAAAAAAAAAAAAAAAAAAAAAAAAAAAAAAAAAAAAAAAAAAAAAAAAAAAAAAAAAAAAAAAAAAAAAAAAAAAAAAAAAAAAAAAAAAAAAAAAAAAAAAAAAAAAAAAAAAAAAAAAAAAAAAAAAAAAAAAAAAAAAAAAAAAAAAAAAAAAAAAAAAAAAAAAAAAAAAAAAAAAAAAAAAAAAAAAAAAAAAAAAAAAAAAAAAAAAAAAAAAAAAAAAAAAAAAAAAAAAAAAAAAAAAAAAAAAAAAAAAAAAAAAAAAAAAAAAAAAAAAAAAAAAAAAAAAAAAAAAAAAAAAAAAAAAAAAAAAAAAAAAAAAAAAAAAAAAAAAAAAAAAAAAAAAAAAAAAAAAAAAAAAAAAAAAAAAAAAAAAAAAAAAAAAAAAAAAAAAAAAAAAAAAAAAAAAAAAAAAAAAAAAAAAAAAAAAAAAAAAAAAAAAAAAAAAAAAAAAAAAAAAAAAAAAAAAAAAAAAAAAAAAAAAAAAAAAAAAAAAAAAAAAAAAAAAAAAAAAAAAAAAAAAAAAAAAAAAAAAAAAAAAAAAAAAAAAAAAAAAAAAAAAAAAAAAAAAAAAAAAAAAAAAAAAAAAAAAAAAAAAAAAAAAAAAAAAAAAAAAAAAAAAAAAAAAAAAAAAAAAAAAAAAAAAAAAAAAAAAAAAAAAAAAAAAAAAAAAAAAAAAAAAAAAAAAAAAAAAAAAAAAAAAAAAAAAAAAAAAAAAAAAAAAAAAAAAAAAAAAAAAAAAAAAAAAAAAAAAAAAAAAAAAAAAAAAAAAAAAAAAAAAAAAAAAAAAAAAAAAAAAAAAAAAAAAAAAAAAAAAAAAAAAAAAAAAAAAAAAAAAAAAAAAAAAAAAAAAAAAAAAAAAAAAAAAAAAAAAAAAAAAAAAAAAAAAAAAAAAAAAAAAAAAAAAAAAAAAAAAAAAAAAAAAAAAAAAAAAAAAAAAAAAAAAAAAAAAAAAAAAAAAAAAAAAAAAAAAAAAAAAAAAAAAAAAAAAAAAAAAAAAAAAAAAAAAAAAAAAAAAAAAAAAAAAAAAAAAAAAAAAAAAAAAAAAAAAAAAAAAAAAAAAAAAAAAAAAAAAAAAAAAAAAAAAAAAAAAAAAAAAAAAAAAAAAAAAAAAAAAAAAAAAAAAAAAAAAAAAAAAAAAAAAAAAAAAAAAAAAAAAAAAAAAAAAAAAAAAAAAAAAAAAAAAAAAAAAAAAAAAAAAAAAAAAAAAAAAAAAAAAAAAAAAAAAAAAAAAAAAAAAAAAAAAAAAAAAAAAAAAAAAAAAAAAAAAAAAAAAAAAAAAAAAAAAAAAAAAAAAAAAAAAAAAAAAAAAAAAAAAAAAAAAAAAAAAAAAAAAAAAAAAAAAAAAAAAAAAAAAAAAAAAAAAAAAAAAAAAAAAAAAAAAAAAAAAAAAAAAAAAAAAAAAAAAAAAAAAAAAAAAAAAAAAAAAAAAAAAAAAAAAAAAAAAAAAAAAAAAAAAAAAAAAAAAAAAAAAAAAAAAAAAAAAAAAAAAAAAAAAAAAAAAAAAAAAAAAAAAAAAAAAAAAAAAAAAAAAAAAAAAAAAAAAAAAAAAAAAAAAAAAAAAAAAAAAAAAAAAAAAAAAAAAAAAAAAAAAAAAAAAAAAAAAAAAAAAAAAAAAAAAAAAAAAAAAAAAAAAAAAAAAAAAAAAAAAAAAAAAAAAAAAAAAAAAAAAAAAAAAAAAAAAAAAAAAAAAAAAAAAAAAAAAAAAAAAAAAAAAAAAAAAAAAAAAAAAAAAAAAAAAAAAAAAAAAAAAAAAAAAAAAAAAAAAAAAAAAAAAAAAAAAAAAAAAAAAAAAAAAAAAAAAAAAAAAAAAAAAAAAAAAAAAAAAAAAAAAAAAAAAAAAAAAAAAAAAAAAAAAAAAAAAAAAAAAAAAAAAAAAAAAAAAAAAAAAAAAAAAAAAAAAAAAAAAAAAAAAAAAAAAAAAAAAAAAAAAAAAAAAAAAAAAAAAAAAAAAAAAAAAAAAAAAAAAAAAAAAAAAAAAAAAAAAAAAAAAAAAAAAAAAAAAAAAAAAAAAAAAAAAAAAAAAAAAAAAAAAAAAAAAAAAAAAAAAAAAAAAAAAAAAAAAAAAAAAAAAAAAAAAAAAAAAAAAAAAAAAAAAAAAAAAAAAAAAAAAAAAAAAAAAAAAAAAAAAAAAAAAAAAAAAAAAAAAAAAAAAAAAAAAAAAAAAAAAAAAAAAAAAAAAAAAAAAAAAAAAAAAAAAAAAAAAAAAAAAAAAAAAAAAAAAAAAAAAAAAAAAAAAAAAAAAAAAAAAAAAAAAAAAAAAAAAAAAAAAAAAAAAAAAAAAAAAAAAAAAAAAAAAAAAAAAAAAAAAAAAAAAAAAAAAAAAAAAAAAAAAAAAAAAAAAAAAAAAAAAAAAAAAAAAAAAAAAAAAAAAAAAAAAAAAAAAAAAAAAAAAAAAAAAAAAAAAAAAAAAAAAAAAAAAAAAAAAAAAAAAAAAAAAAAAAAAAAAAAAAAAAAAAAAAAAAAAAAAAAAAAAAAAAAAAAAAAAAAAAAAAAAAAAAAAAAAAAAAAAAAAAAAAAAAAAAAAAAAAAAAAAAAAAAAAAAAAAAAAAAAAAAAAAAAAAAAAAAAAAAAAAAAAAAAAAAAAAAAAAAAAAAAAAAAAAAAAAAAAAAAAAAAAAAAAAAAAAAAAAAAAAAAAAAAAAAAAAAAAAAAAAAAAAAAAAAAAAAAAAAAAAAAAAAAAAAAAAAAAAAAAAAAAAAAAAAAAAAAAAAAAAAAAAAAAAAAAAAAAAAAAAAAAAAAAAAAAAAAAAAAAAAAAAAAAAAAAAAAAAAAAAAAAAAAAAAAAAAAAAAAAAAAAAAAAAAAAAAAAAAAAAAAAAAAAAAAAAAAAAAAAAAAAAAAAAAAAAAAAAAAAAAAAAAAAAAAAAAAAAAAAAAAAAAAAAAAAAAAAAAAAAAAAAAAAAAAAAAAAAAAAAAAAAAAAAAAAAAAAAAAAAAAAAAAAAAAAAAAAAAAAAAAAAAAAAAAAAAAAAAAAAAAAAAAAAAAAAAAAAAAAAAAAAAAAAAAAAAAAAAAAAAAAAAAAAAAAAAAAAAAAAAAAAAAAAAAAAAAAAAAAAAAAAAAAAAAAAAAAAAAAAAAAAAAAAAAAAAAAAAAAAAAAAAAAAAAAAAAAAAAAAAAAAAAAAAAAAAAAAAAAAAAAAAAAAAAAAAAAAAAAAAAAAAAAAAAAAAAAAAAAAAAAAAAAAAAAAAAAAAAAAAAAAAAAAAAAAAAAAAAAAAAAAAAAAAAAAAAAAAAAAAAAAAAAAAAAAAAAAAAAAAAAAAAAAAAAAAAAAAAAAAAAAAAAAAAAAAAAAAAAAAAAAAAAAAAAAAAAAAAAAAAAAAAAAAAAAAAAAAAAAAAAAAAAAAAAAAAAAAAAAAAAAAAAAAAAAAAAAAAAAAAAAAAAAAAAAAAAAAAAAAAAAAAAAAAAAAAAAAAAAAAAAAAAAAAAAAAAAAAAAAAAAAAAAAAAAAAAAAAAAAAAAAAAAAAAAAAAAAAAAAAAAAAAAAAAAAAAAAAAAAAAAAAAAAAAAAAAAAAAAAAAAAAAAAAAAAAAAAAAAAAAAAAAAAAAAAAAAAAAAAAAAAAAAAAAAAAAAAAAAAAAAAAAAAAAAAAAAAAAAAAAAAAAAAAAAAAAAAAAAAAAAAAAAAAAAAAAAAAAAAAAAAAAAAAAAAAAAAAAAAAAAAAAAAAAAAAAAAAAAAAAAAAAAAAAAAAAAAAAAAAAAAAAAAAAAAAAAAAAAAAAAAAAAAAAAAAAAAAAAAAAAAAAAAAAAAAAAAAAAAAAAAAAAAAAAAAAAAAAAAAAAAAAAAAAAAAAAAAAAAAAAAAAAAAAAAAAAAAAAAAAAAAAAAAAAAAAAAAAAAAAAAAAAAAAAAAAAAAAAAAAAAAAAAAAAAAAAAAAAAAAAAAAAAAAAAAAAAAAAAAAAAAAAAAAAAAAAAAAAAAAAAAAAAAAAAAAAAAAAAAAAAAAAAAAAAAAAAAAAAAAAAAAAAAAAAAAAAAAAAAAAAAAAAAAAAAAAAAAAAAAAAAAAAAAAAAAAAAAAAAAAAAAAAAAAAAAAAAAAAAAAAAAAAAAAAAAAAAAAAAAAAAAAAAAAAAAAAAAAAAAAAAAAAAAAAAAAAAAAAAAAAAAAAAAAAAAAAAAAAAAAAAAAAAAAAAAAAAAAAAAAAAAAAAAAAAAAAAAAAAAAAAAAAAAAAAAAAAAAAAAAAAAAAAAAAAAAAAAAAAAAAAAAAAAAAAAAAAAAAAAAAAAAAAAAAAAAAAAAAAAAAAAAAAAAAAAAAAAAAAAAAAAAAAAAAAAAAAAAAAAAAAAAAAAAAAAAAAAAAAAAAAAAAAAAAAAAAAAAAAAAAAAAAAAAAAAAAAAAAAAAAAAAAAAAAAAAAAAAAAAAAAAAAAAAAAAAAAAAAAAAAAAAAAAAAAAAAAAAAAAAAAAAAAAAAAAAAAAAAAAAAAAAAAAAAAAAAAAAAAAAAAAAAAAAAAAAAAAAAAAAAAAAAAAAAAAAAAAAAAAAAAAAAAAAAAAAAAAAAAAAAAAAAAAAAAAAAAAAAAAAAAAAAAAAAAAAAAAAAAAAAAAAAAAAAAAAAAAAAAAAAAAAAAAAAAAAAAAAAAAPZYQKQ5f6+Raa9bjgIEZu7XgXWafYUOV3ZvVLA0KypFJjFJ88WQCordtX6Sdy5op+0/LhyEkzsGG5TTiEs1RBrRqVU=</c2pa:manifest></metadata>
<rect width="1920" height="1080" fill="#0D0B12"></rect>
<g opacity="0.020" transform="translate(1180,210) rotate(-8)"><ellipse cx="0" cy="0" rx="46" ry="41" fill="#B14DFF"></ellipse><ellipse cx="72" cy="0" rx="46" ry="41" fill="#B14DFF"></ellipse><rect x="26" y="-10" width="38" height="20" rx="10" fill="#0D0B12"></rect></g><g opacity="0.034" transform="translate(1268,210) rotate(-8)"><ellipse cx="0" cy="0" rx="46" ry="41" fill="#B14DFF"></ellipse><ellipse cx="72" cy="0" rx="46" ry="41" fill="#B14DFF"></ellipse><rect x="26" y="-10" width="38" height="20" rx="10" fill="#0D0B12"></rect></g><g opacity="0.048" transform="translate(1356,210) rotate(-8)"><ellipse cx="0" cy="0" rx="46" ry="41" fill="#B14DFF"></ellipse><ellipse cx="72" cy="0" rx="46" ry="41" fill="#B14DFF"></ellipse><rect x="26" y="-10" width="38" height="20" rx="10" fill="#0D0B12"></rect></g><g opacity="0.062" transform="translate(1444,210) rotate(-8)"><ellipse cx="0" cy="0" rx="46" ry="41" fill="#B14DFF"></ellipse><ellipse cx="72" cy="0" rx="46" ry="41" fill="#B14DFF"></ellipse><rect x="26" y="-10" width="38" height="20" rx="10" fill="#0D0B12"></rect></g><g opacity="0.020" transform="translate(1532,210) rotate(-8)"><ellipse cx="0" cy="0" rx="46" ry="41" fill="#B14DFF"></ellipse><ellipse cx="72" cy="0" rx="46" ry="41" fill="#B14DFF"></ellipse><rect x="26" y="-10" width="38" height="20" rx="10" fill="#0D0B12"></rect></g><g opacity="0.034" transform="translate(1620,210) rotate(-8)"><ellipse cx="0" cy="0" rx="46" ry="41" fill="#B14DFF"></ellipse><ellipse cx="72" cy="0" rx="46" ry="41" fill="#B14DFF"></ellipse><rect x="26" y="-10" width="38" height="20" rx="10" fill="#0D0B12"></rect></g><g opacity="0.048" transform="translate(1708,210) rotate(-8)"><ellipse cx="0" cy="0" rx="46" ry="41" fill="#B14DFF"></ellipse><ellipse cx="72" cy="0" rx="46" ry="41" fill="#B14DFF"></ellipse><rect x="26" y="-10" width="38" height="20" rx="10" fill="#0D0B12"></rect></g><g opacity="0.062" transform="translate(1796,210) rotate(-8)"><ellipse cx="0" cy="0" rx="46" ry="41" fill="#B14DFF"></ellipse><ellipse cx="72" cy="0" rx="46" ry="41" fill="#B14DFF"></ellipse><rect x="26" y="-10" width="38" height="20" rx="10" fill="#0D0B12"></rect></g><g opacity="0.020" transform="translate(1884,210) rotate(-8)"><ellipse cx="0" cy="0" rx="46" ry="41" fill="#B14DFF"></ellipse><ellipse cx="72" cy="0" rx="46" ry="41" fill="#B14DFF"></ellipse><rect x="26" y="-10" width="38" height="20" rx="10" fill="#0D0B12"></rect></g><g opacity="0.034" transform="translate(1972,210) rotate(-8)"><ellipse cx="0" cy="0" rx="46" ry="41" fill="#B14DFF"></ellipse><ellipse cx="72" cy="0" rx="46" ry="41" fill="#B14DFF"></ellipse><rect x="26" y="-10" width="38" height="20" rx="10" fill="#0D0B12"></rect></g><g opacity="0.034" transform="translate(1126,338) rotate(-8)"><ellipse cx="0" cy="0" rx="46" ry="41" fill="#B14DFF"></ellipse><ellipse cx="72" cy="0" rx="46" ry="41" fill="#B14DFF"></ellipse><rect x="26" y="-10" width="38" height="20" rx="10" fill="#0D0B12"></rect></g><g opacity="0.048" transform="translate(1214,338) rotate(-8)"><ellipse cx="0" cy="0" rx="46" ry="41" fill="#B14DFF"></ellipse><ellipse cx="72" cy="0" rx="46" ry="41" fill="#B14DFF"></ellipse><rect x="26" y="-10" width="38" height="20" rx="10" fill="#0D0B12"></rect></g><g opacity="0.062" transform="translate(1302,338) rotate(-8)"><ellipse cx="0" cy="0" rx="46" ry="41" fill="#B14DFF"></ellipse><ellipse cx="72" cy="0" rx="46" ry="41" fill="#B14DFF"></ellipse><rect x="26" y="-10" width="38" height="20" rx="10" fill="#0D0B12"></rect></g><g opacity="0.020" transform="translate(1390,338) rotate(-8)"><ellipse cx="0" cy="0" rx="46" ry="41" fill="#B14DFF"></ellipse><ellipse cx="72" cy="0" rx="46" ry="41" fill="#B14DFF"></ellipse><rect x="26" y="-10" width="38" height="20" rx="10" fill="#0D0B12"></rect></g><g opacity="0.034" transform="translate(1478,338) rotate(-8)"><ellipse cx="0" cy="0" rx="46" ry="41" fill="#B14DFF"></ellipse><ellipse cx="72" cy="0" rx="46" ry="41" fill="#B14DFF"></ellipse><rect x="26" y="-10" width="38" height="20" rx="10" fill="#0D0B12"></rect></g><g opacity="0.048" transform="translate(1566,338) rotate(-8)"><ellipse cx="0" cy="0" rx="46" ry="41" fill="#B14DFF"></ellipse><ellipse cx="72" cy="0" rx="46" ry="41" fill="#B14DFF"></ellipse><rect x="26" y="-10" width="38" height="20" rx="10" fill="#0D0B12"></rect></g><g opacity="0.062" transform="translate(1654,338) rotate(-8)"><ellipse cx="0" cy="0" rx="46" ry="41" fill="#B14DFF"></ellipse><ellipse cx="72" cy="0" rx="46" ry="41" fill="#B14DFF"></ellipse><rect x="26" y="-10" width="38" height="20" rx="10" fill="#0D0B12"></rect></g><g opacity="0.020" transform="translate(1742,338) rotate(-8)"><ellipse cx="0" cy="0" rx="46" ry="41" fill="#B14DFF"></ellipse><ellipse cx="72" cy="0" rx="46" ry="41" fill="#B14DFF"></ellipse><rect x="26" y="-10" width="38" height="20" rx="10" fill="#0D0B12"></rect></g><g opacity="0.034" transform="translate(1830,338) rotate(-8)"><ellipse cx="0" cy="0" rx="46" ry="41" fill="#B14DFF"></ellipse><ellipse cx="72" cy="0" rx="46" ry="41" fill="#B14DFF"></ellipse><rect x="26" y="-10" width="38" height="20" rx="10" fill="#0D0B12"></rect></g><g opacity="0.048" transform="translate(1918,338) rotate(-8)"><ellipse cx="0" cy="0" rx="46" ry="41" fill="#B14DFF"></ellipse><ellipse cx="72" cy="0" rx="46" ry="41" fill="#B14DFF"></ellipse><rect x="26" y="-10" width="38" height="20" rx="10" fill="#0D0B12"></rect></g><g opacity="0.048" transform="translate(1072,466) rotate(-8)"><ellipse cx="0" cy="0" rx="46" ry="41" fill="#B14DFF"></ellipse><ellipse cx="72" cy="0" rx="46" ry="41" fill="#B14DFF"></ellipse><rect x="26" y="-10" width="38" height="20" rx="10" fill="#0D0B12"></rect></g><g opacity="0.062" transform="translate(1160,466) rotate(-8)"><ellipse cx="0" cy="0" rx="46" ry="41" fill="#B14DFF"></ellipse><ellipse cx="72" cy="0" rx="46" ry="41" fill="#B14DFF"></ellipse><rect x="26" y="-10" width="38" height="20" rx="10" fill="#0D0B12"></rect></g><g opacity="0.020" transform="translate(1248,466) rotate(-8)"><ellipse cx="0" cy="0" rx="46" ry="41" fill="#B14DFF"></ellipse><ellipse cx="72" cy="0" rx="46" ry="41" fill="#B14DFF"></ellipse><rect x="26" y="-10" width="38" height="20" rx="10" fill="#0D0B12"></rect></g><g opacity="0.034" transform="translate(1336,466) rotate(-8)"><ellipse cx="0" cy="0" rx="46" ry="41" fill="#B14DFF"></ellipse><ellipse cx="72" cy="0" rx="46" ry="41" fill="#B14DFF"></ellipse><rect x="26" y="-10" width="38" height="20" rx="10" fill="#0D0B12"></rect></g><g opacity="0.048" transform="translate(1424,466) rotate(-8)"><ellipse cx="0" cy="0" rx="46" ry="41" fill="#B14DFF"></ellipse><ellipse cx="72" cy="0" rx="46" ry="41" fill="#B14DFF"></ellipse><rect x="26" y="-10" width="38" height="20" rx="10" fill="#0D0B12"></rect></g><g opacity="0.062" transform="translate(1512,466) rotate(-8)"><ellipse cx="0" cy="0" rx="46" ry="41" fill="#B14DFF"></ellipse><ellipse cx="72" cy="0" rx="46" ry="41" fill="#B14DFF"></ellipse><rect x="26" y="-10" width="38" height="20" rx="10" fill="#0D0B12"></rect></g><g opacity="0.020" transform="translate(1600,466) rotate(-8)"><ellipse cx="0" cy="0" rx="46" ry="41" fill="#B14DFF"></ellipse><ellipse cx="72" cy="0" rx="46" ry="41" fill="#B14DFF"></ellipse><rect x="26" y="-10" width="38" height="20" rx="10" fill="#0D0B12"></rect></g><g opacity="0.034" transform="translate(1688,466) rotate(-8)"><ellipse cx="0" cy="0" rx="46" ry="41" fill="#B14DFF"></ellipse><ellipse cx="72" cy="0" rx="46" ry="41" fill="#B14DFF"></ellipse><rect x="26" y="-10" width="38" height="20" rx="10" fill="#0D0B12"></rect></g><g opacity="0.048" transform="translate(1776,466) rotate(-8)"><ellipse cx="0" cy="0" rx="46" ry="41" fill="#B14DFF"></ellipse><ellipse cx="72" cy="0" rx="46" ry="41" fill="#B14DFF"></ellipse><rect x="26" y="-10" width="38" height="20" rx="10" fill="#0D0B12"></rect></g><g opacity="0.062" transform="translate(1864,466) rotate(-8)"><ellipse cx="0" cy="0" rx="46" ry="41" fill="#B14DFF"></ellipse><ellipse cx="72" cy="0" rx="46" ry="41" fill="#B14DFF"></ellipse><rect x="26" y="-10" width="38" height="20" rx="10" fill="#0D0B12"></rect></g><g opacity="0.020" transform="translate(1952,466) rotate(-8)"><ellipse cx="0" cy="0" rx="46" ry="41" fill="#B14DFF"></ellipse><ellipse cx="72" cy="0" rx="46" ry="41" fill="#B14DFF"></ellipse><rect x="26" y="-10" width="38" height="20" rx="10" fill="#0D0B12"></rect></g><g opacity="0.062" transform="translate(1018,594) rotate(-8)"><ellipse cx="0" cy="0" rx="46" ry="41" fill="#B14DFF"></ellipse><ellipse cx="72" cy="0" rx="46" ry="41" fill="#B14DFF"></ellipse><rect x="26" y="-10" width="38" height="20" rx="10" fill="#0D0B12"></rect></g><g opacity="0.020" transform="translate(1106,594) rotate(-8)"><ellipse cx="0" cy="0" rx="46" ry="41" fill="#B14DFF"></ellipse><ellipse cx="72" cy="0" rx="46" ry="41" fill="#B14DFF"></ellipse><rect x="26" y="-10" width="38" height="20" rx="10" fill="#0D0B12"></rect></g><g opacity="0.034" transform="translate(1194,594) rotate(-8)"><ellipse cx="0" cy="0" rx="46" ry="41" fill="#B14DFF"></ellipse><ellipse cx="72" cy="0" rx="46" ry="41" fill="#B14DFF"></ellipse><rect x="26" y="-10" width="38" height="20" rx="10" fill="#0D0B12"></rect></g><g opacity="0.048" transform="translate(1282,594) rotate(-8)"><ellipse cx="0" cy="0" rx="46" ry="41" fill="#B14DFF"></ellipse><ellipse cx="72" cy="0" rx="46" ry="41" fill="#B14DFF"></ellipse><rect x="26" y="-10" width="38" height="20" rx="10" fill="#0D0B12"></rect></g><g opacity="0.062" transform="translate(1370,594) rotate(-8)"><ellipse cx="0" cy="0" rx="46" ry="41" fill="#B14DFF"></ellipse><ellipse cx="72" cy="0" rx="46" ry="41" fill="#B14DFF"></ellipse><rect x="26" y="-10" width="38" height="20" rx="10" fill="#0D0B12"></rect></g><g opacity="0.020" transform="translate(1458,594) rotate(-8)"><ellipse cx="0" cy="0" rx="46" ry="41" fill="#B14DFF"></ellipse><ellipse cx="72" cy="0" rx="46" ry="41" fill="#B14DFF"></ellipse><rect x="26" y="-10" width="38" height="20" rx="10" fill="#0D0B12"></rect></g><g opacity="0.034" transform="translate(1546,594) rotate(-8)"><ellipse cx="0" cy="0" rx="46" ry="41" fill="#B14DFF"></ellipse><ellipse cx="72" cy="0" rx="46" ry="41" fill="#B14DFF"></ellipse><rect x="26" y="-10" width="38" height="20" rx="10" fill="#0D0B12"></rect></g><g opacity="0.048" transform="translate(1634,594) rotate(-8)"><ellipse cx="0" cy="0" rx="46" ry="41" fill="#B14DFF"></ellipse><ellipse cx="72" cy="0" rx="46" ry="41" fill="#B14DFF"></ellipse><rect x="26" y="-10" width="38" height="20" rx="10" fill="#0D0B12"></rect></g><g opacity="0.062" transform="translate(1722,594) rotate(-8)"><ellipse cx="0" cy="0" rx="46" ry="41" fill="#B14DFF"></ellipse><ellipse cx="72" cy="0" rx="46" ry="41" fill="#B14DFF"></ellipse><rect x="26" y="-10" width="38" height="20" rx="10" fill="#0D0B12"></rect></g><g opacity="0.020" transform="translate(1810,594) rotate(-8)"><ellipse cx="0" cy="0" rx="46" ry="41" fill="#B14DFF"></ellipse><ellipse cx="72" cy="0" rx="46" ry="41" fill="#B14DFF"></ellipse><rect x="26" y="-10" width="38" height="20" rx="10" fill="#0D0B12"></rect></g><g opacity="0.034" transform="translate(1898,594) rotate(-8)"><ellipse cx="0" cy="0" rx="46" ry="41" fill="#B14DFF"></ellipse><ellipse cx="72" cy="0" rx="46" ry="41" fill="#B14DFF"></ellipse><rect x="26" y="-10" width="38" height="20" rx="10" fill="#0D0B12"></rect></g><g opacity="0.034" transform="translate(1052,722) rotate(-8)"><ellipse cx="0" cy="0" rx="46" ry="41" fill="#B14DFF"></ellipse><ellipse cx="72" cy="0" rx="46" ry="41" fill="#B14DFF"></ellipse><rect x="26" y="-10" width="38" height="20" rx="10" fill="#0D0B12"></rect></g><g opacity="0.048" transform="translate(1140,722) rotate(-8)"><ellipse cx="0" cy="0" rx="46" ry="41" fill="#B14DFF"></ellipse><ellipse cx="72" cy="0" rx="46" ry="41" fill="#B14DFF"></ellipse><rect x="26" y="-10" width="38" height="20" rx="10" fill="#0D0B12"></rect></g><g opacity="0.062" transform="translate(1228,722) rotate(-8)"><ellipse cx="0" cy="0" rx="46" ry="41" fill="#B14DFF"></ellipse><ellipse cx="72" cy="0" rx="46" ry="41" fill="#B14DFF"></ellipse><rect x="26" y="-10" width="38" height="20" rx="10" fill="#0D0B12"></rect></g><g opacity="0.020" transform="translate(1316,722) rotate(-8)"><ellipse cx="0" cy="0" rx="46" ry="41" fill="#B14DFF"></ellipse><ellipse cx="72" cy="0" rx="46" ry="41" fill="#B14DFF"></ellipse><rect x="26" y="-10" width="38" height="20" rx="10" fill="#0D0B12"></rect></g><g opacity="0.034" transform="translate(1404,722) rotate(-8)"><ellipse cx="0" cy="0" rx="46" ry="41" fill="#B14DFF"></ellipse><ellipse cx="72" cy="0" rx="46" ry="41" fill="#B14DFF"></ellipse><rect x="26" y="-10" width="38" height="20" rx="10" fill="#0D0B12"></rect></g><g opacity="0.048" transform="translate(1492,722) rotate(-8)"><ellipse cx="0" cy="0" rx="46" ry="41" fill="#B14DFF"></ellipse><ellipse cx="72" cy="0" rx="46" ry="41" fill="#B14DFF"></ellipse><rect x="26" y="-10" width="38" height="20" rx="10" fill="#0D0B12"></rect></g><g opacity="0.062" transform="translate(1580,722) rotate(-8)"><ellipse cx="0" cy="0" rx="46" ry="41" fill="#B14DFF"></ellipse><ellipse cx="72" cy="0" rx="46" ry="41" fill="#B14DFF"></ellipse><rect x="26" y="-10" width="38" height="20" rx="10" fill="#0D0B12"></rect></g><g opacity="0.020" transform="translate(1668,722) rotate(-8)"><ellipse cx="0" cy="0" rx="46" ry="41" fill="#B14DFF"></ellipse><ellipse cx="72" cy="0" rx="46" ry="41" fill="#B14DFF"></ellipse><rect x="26" y="-10" width="38" height="20" rx="10" fill="#0D0B12"></rect></g><g opacity="0.034" transform="translate(1756,722) rotate(-8)"><ellipse cx="0" cy="0" rx="46" ry="41" fill="#B14DFF"></ellipse><ellipse cx="72" cy="0" rx="46" ry="41" fill="#B14DFF"></ellipse><rect x="26" y="-10" width="38" height="20" rx="10" fill="#0D0B12"></rect></g><g opacity="0.048" transform="translate(1844,722) rotate(-8)"><ellipse cx="0" cy="0" rx="46" ry="41" fill="#B14DFF"></ellipse><ellipse cx="72" cy="0" rx="46" ry="41" fill="#B14DFF"></ellipse><rect x="26" y="-10" width="38" height="20" rx="10" fill="#0D0B12"></rect></g><g opacity="0.048" transform="translate(998,850) rotate(-8)"><ellipse cx="0" cy="0" rx="46" ry="41" fill="#B14DFF"></ellipse><ellipse cx="72" cy="0" rx="46" ry="41" fill="#B14DFF"></ellipse><rect x="26" y="-10" width="38" height="20" rx="10" fill="#0D0B12"></rect></g><g opacity="0.062" transform="translate(1086,850) rotate(-8)"><ellipse cx="0" cy="0" rx="46" ry="41" fill="#B14DFF"></ellipse><ellipse cx="72" cy="0" rx="46" ry="41" fill="#B14DFF"></ellipse><rect x="26" y="-10" width="38" height="20" rx="10" fill="#0D0B12"></rect></g><g opacity="0.020" transform="translate(1174,850) rotate(-8)"><ellipse cx="0" cy="0" rx="46" ry="41" fill="#B14DFF"></ellipse><ellipse cx="72" cy="0" rx="46" ry="41" fill="#B14DFF"></ellipse><rect x="26" y="-10" width="38" height="20" rx="10" fill="#0D0B12"></rect></g><g opacity="0.034" transform="translate(1262,850) rotate(-8)"><ellipse cx="0" cy="0" rx="46" ry="41" fill="#B14DFF"></ellipse><ellipse cx="72" cy="0" rx="46" ry="41" fill="#B14DFF"></ellipse><rect x="26" y="-10" width="38" height="20" rx="10" fill="#0D0B12"></rect></g><g opacity="0.048" transform="translate(1350,850) rotate(-8)"><ellipse cx="0" cy="0" rx="46" ry="41" fill="#B14DFF"></ellipse><ellipse cx="72" cy="0" rx="46" ry="41" fill="#B14DFF"></ellipse><rect x="26" y="-10" width="38" height="20" rx="10" fill="#0D0B12"></rect></g><g opacity="0.062" transform="translate(1438,850) rotate(-8)"><ellipse cx="0" cy="0" rx="46" ry="41" fill="#B14DFF"></ellipse><ellipse cx="72" cy="0" rx="46" ry="41" fill="#B14DFF"></ellipse><rect x="26" y="-10" width="38" height="20" rx="10" fill="#0D0B12"></rect></g><g opacity="0.020" transform="translate(1526,850) rotate(-8)"><ellipse cx="0" cy="0" rx="46" ry="41" fill="#B14DFF"></ellipse><ellipse cx="72" cy="0" rx="46" ry="41" fill="#B14DFF"></ellipse><rect x="26" y="-10" width="38" height="20" rx="10" fill="#0D0B12"></rect></g><g opacity="0.034" transform="translate(1614,850) rotate(-8)"><ellipse cx="0" cy="0" rx="46" ry="41" fill="#B14DFF"></ellipse><ellipse cx="72" cy="0" rx="46" ry="41" fill="#B14DFF"></ellipse><rect x="26" y="-10" width="38" height="20" rx="10" fill="#0D0B12"></rect></g><g opacity="0.048" transform="translate(1702,850) rotate(-8)"><ellipse cx="0" cy="0" rx="46" ry="41" fill="#B14DFF"></ellipse><ellipse cx="72" cy="0" rx="46" ry="41" fill="#B14DFF"></ellipse><rect x="26" y="-10" width="38" height="20" rx="10" fill="#0D0B12"></rect></g><g opacity="0.062" transform="translate(1790,850) rotate(-8)"><ellipse cx="0" cy="0" rx="46" ry="41" fill="#B14DFF"></ellipse><ellipse cx="72" cy="0" rx="46" ry="41" fill="#B14DFF"></ellipse><rect x="26" y="-10" width="38" height="20" rx="10" fill="#0D0B12"></rect></g><g opacity="0.020" transform="translate(1032,978) rotate(-8)"><ellipse cx="0" cy="0" rx="46" ry="41" fill="#B14DFF"></ellipse><ellipse cx="72" cy="0" rx="46" ry="41" fill="#B14DFF"></ellipse><rect x="26" y="-10" width="38" height="20" rx="10" fill="#0D0B12"></rect></g><g opacity="0.034" transform="translate(1120,978) rotate(-8)"><ellipse cx="0" cy="0" rx="46" ry="41" fill="#B14DFF"></ellipse><ellipse cx="72" cy="0" rx="46" ry="41" fill="#B14DFF"></ellipse><rect x="26" y="-10" width="38" height="20" rx="10" fill="#0D0B12"></rect></g><g opacity="0.048" transform="translate(1208,978) rotate(-8)"><ellipse cx="0" cy="0" rx="46" ry="41" fill="#B14DFF"></ellipse><ellipse cx="72" cy="0" rx="46" ry="41" fill="#B14DFF"></ellipse><rect x="26" y="-10" width="38" height="20" rx="10" fill="#0D0B12"></rect></g><g opacity="0.062" transform="translate(1296,978) rotate(-8)"><ellipse cx="0" cy="0" rx="46" ry="41" fill="#B14DFF"></ellipse><ellipse cx="72" cy="0" rx="46" ry="41" fill="#B14DFF"></ellipse><rect x="26" y="-10" width="38" height="20" rx="10" fill="#0D0B12"></rect></g><g opacity="0.020" transform="translate(1384,978) rotate(-8)"><ellipse cx="0" cy="0" rx="46" ry="41" fill="#B14DFF"></ellipse><ellipse cx="72" cy="0" rx="46" ry="41" fill="#B14DFF"></ellipse><rect x="26" y="-10" width="38" height="20" rx="10" fill="#0D0B12"></rect></g><g opacity="0.034" transform="translate(1472,978) rotate(-8)"><ellipse cx="0" cy="0" rx="46" ry="41" fill="#B14DFF"></ellipse><ellipse cx="72" cy="0" rx="46" ry="41" fill="#B14DFF"></ellipse><rect x="26" y="-10" width="38" height="20" rx="10" fill="#0D0B12"></rect></g><g opacity="0.048" transform="translate(1560,978) rotate(-8)"><ellipse cx="0" cy="0" rx="46" ry="41" fill="#B14DFF"></ellipse><ellipse cx="72" cy="0" rx="46" ry="41" fill="#B14DFF"></ellipse><rect x="26" y="-10" width="38" height="20" rx="10" fill="#0D0B12"></rect></g><g opacity="0.062" transform="translate(1648,978) rotate(-8)"><ellipse cx="0" cy="0" rx="46" ry="41" fill="#B14DFF"></ellipse><ellipse cx="72" cy="0" rx="46" ry="41" fill="#B14DFF"></ellipse><rect x="26" y="-10" width="38" height="20" rx="10" fill="#0D0B12"></rect></g><g opacity="0.020" transform="translate(1736,978) rotate(-8)"><ellipse cx="0" cy="0" rx="46" ry="41" fill="#B14DFF"></ellipse><ellipse cx="72" cy="0" rx="46" ry="41" fill="#B14DFF"></ellipse><rect x="26" y="-10" width="38" height="20" rx="10" fill="#0D0B12"></rect></g>
<circle cx="1698" cy="946" r="11" fill="none" stroke="#28E0C8" stroke-width="4" opacity="0.5"></circle>
</svg>